# xmcd
#
# Track frame offsets:
#	150
#	17245
#	30878
#	47942
#	63956
#	81384
#	96272
#	111498
#	126285
#	141675
#	157151
#	172917
#	188262
#	204295
#	220659
#	232745
#	244838
#	254279
#	271139
#	287250
#	303622
#	323041
#
# Disc length: 4530 seconds
#
# Revision: 0
# Processed by: cddbd v1.5.2PL0 Copyright (c) Steve Scherf et al.
# Submitted via: dBpowerAMP V4.0
#
DISCID=3311b016
DTITLE=Various Artist - ERG Nu Country Traxx Vol. 238 CAN
DYEAR=2014
DGENRE=Country
TTITLE0=Luke Bryan - Play It Again
TTITLE1=Road Hammers, The - Mud
TTITLE2=Band Perry, The - Chainsaw
TTITLE3=Jason Blaine - Friends Of Mine
TTITLE4=David Nail  - Kiss You Tonight
TTITLE5=Dallas Smith - Slow Rollin'
TTITLE6=Cassadee Pope - I Wish I Could Break Your Heart
TTITLE7=Kacey Musgraves - Keep It To Yourself
TTITLE8=Kellie Pickler - Closer To Nowhere
TTITLE9=Cole Swindell - Hope You Get Lonely Tonight
TTITLE10=Madeline Merlo - Sinking Like A Stone
TTITLE11=Jon Pardi - What I Can't Put Down
TTITLE12=Jamie Lynn Spears - How Could I Want More
TTITLE13=George Canyon - Crazy Love
TTITLE14=Glen Templeton - Ball Cap
TTITLE15=Gwen Sebastian - Annie's New Gun
TTITLE16=Lovelocks, The - Teardrop Tattoo
TTITLE17=Big and Rich - Look At You
TTITLE18=Brandon Hamilton - More
TTITLE19=Swon Brothers, The - Later On
TTITLE20=JJ Lawhorn  - Good Ol' Boys Like Us
TTITLE21=Orchard, The - Small Town Girl
EXTD=
EXTT0=
EXTT1=
EXTT2=
EXTT3=
EXTT4=
EXTT5=
EXTT6=
EXTT7=
EXTT8=
EXTT9=
EXTT10=
EXTT11=
EXTT12=
EXTT13=
EXTT14=
EXTT15=
EXTT16=
EXTT17=
EXTT18=
EXTT19=
EXTT20=
EXTT21=
PLAYORDER=
